<svg width="42" height="20" viewBox="0 0 42 20" fill="none" xmlns="http://www.w3.org/2000/svg">
<path d="M39.6774 8.38709H5.51955L11.1779 2.75612C11.8093 2.12774 11.8117 1.10653 11.1833 0.475156C10.5549 -0.156296 9.53366 -0.158635 8.90229 0.469672L0.474547 8.85677C0.473982 8.85725 0.473579 8.85782 0.473095 8.8583C-0.156663 9.48669 -0.158679 10.5112 0.472934 11.1417C0.473498 11.1422 0.473902 11.1427 0.474385 11.1432L8.90213 19.5303C9.53342 20.1585 10.5547 20.1564 11.1832 19.5248C11.8116 18.8935 11.8091 17.8723 11.1778 17.2439L5.51955 11.6129H39.6774C40.5683 11.6129 41.2904 10.8908 41.2904 9.99999C41.2904 9.10919 40.5683 8.38709 39.6774 8.38709Z" fill="#7A7882"/>
</svg>
