<?xml version="1.0" encoding="UTF-8"?>
<svg width="49px" height="48px" viewBox="0 0 49 48" version="1.1" xmlns="http://www.w3.org/2000/svg" xmlns:xlink="http://www.w3.org/1999/xlink">
    <title>Path</title>
    <g id="Spiria-Scripts-Dashboard" stroke="none" stroke-width="1" fill="none" fill-rule="evenodd">
        <g id="Dashboard02" transform="translate(-1778.000000, -979.000000)" fill="#B2B2B7" fill-rule="nonzero">
            <g id="Group-17" transform="translate(1590.779026, 979.100054)">
                <path d="M234.803834,27.2214537 C234.313099,27.09877 233.822364,27.2214537 233.392971,27.528163 C231.798083,28.8776837 229.957827,29.9818371 227.933546,30.7179393 C226.031949,31.4540416 223.946326,31.8220927 221.738019,31.8220927 C216.769329,31.8220927 212.230032,29.7978115 208.978914,26.5466933 C205.727796,23.2955751 203.703514,18.756278 203.703514,13.7875879 C203.703514,11.7019649 204.071565,9.67768374 204.684984,7.83742815 C205.359744,5.87448885 206.341214,4.09557512 207.629393,2.56202879 C208.18147,1.88726841 208.058786,0.905798758 207.384026,0.35372208 C206.954633,0.0470128151 206.463898,-0.075670891 205.973163,0.0470128151 C200.759105,1.45787543 196.219808,4.58630994 192.96869,8.75755595 C189.840256,12.8674601 188,17.9588339 188,23.4796007 C188,30.1658627 190.699042,36.2387061 195.115655,40.6553195 C199.532268,45.0719329 205.54377,47.7709745 212.291374,47.7709745 C217.934824,47.7709745 223.148882,45.8080352 227.320128,42.556917 C231.552716,39.2444569 234.619808,34.5211342 235.907987,29.1230512 C236.153355,28.2642652 235.66262,27.4054793 234.803834,27.2214537 Z" id="Path"></path>
            </g>
        </g>
    </g>
</svg>