<svg width="43" height="43" viewBox="0 0 43 43" fill="none" xmlns="http://www.w3.org/2000/svg">
<path fill-rule="evenodd" clip-rule="evenodd" d="M36.6181 6.30654C28.2109 -2.10076 14.7166 -2.1036 6.30654 6.30654C-2.10076 14.7138 -2.1036 28.208 6.30654 36.6181C14.7138 45.0254 28.208 45.0282 36.6181 36.6181C45.0254 28.211 45.0282 14.7166 36.6181 6.30654ZM20.205 11.4038C20.205 10.7095 20.768 10.1465 21.4623 10.1465C22.1567 10.1465 22.7196 10.7095 22.7196 11.4038V18.1095C22.7196 18.8039 22.1567 19.3668 21.4623 19.3668C20.768 19.3668 20.205 18.8039 20.205 18.1095V11.4038ZM12.1582 21.4623C12.1582 26.5927 16.332 30.7664 21.4623 30.7664C26.5926 30.7664 30.7664 26.5926 30.7665 21.4622C30.7665 18.8041 29.6255 16.267 27.636 14.5014C27.1166 14.0405 26.322 14.0878 25.8611 14.6072C25.4002 15.1267 25.4476 15.9213 25.9669 16.3822C27.419 17.6709 28.2519 19.5225 28.2519 21.4623C28.2519 25.2061 25.2062 28.2518 21.4624 28.2518C17.7186 28.2518 14.6729 25.2061 14.6729 21.4623C14.6729 19.5034 15.5196 17.6396 16.9958 16.3488C17.5185 15.8918 17.5717 15.0974 17.1146 14.5747C16.6576 14.052 15.8633 13.9988 15.3405 14.4558C13.3181 16.2241 12.1582 18.7779 12.1582 21.4623Z" fill="#ea16f5"/>
</svg>
