<svg width="32" height="32" viewBox="0 0 32 32" fill="none" xmlns="http://www.w3.org/2000/svg">
<path fill-rule="evenodd" clip-rule="evenodd" d="M28.7876 11.8218L31.2471 12.3564C31.6865 12.4521 32 12.8411 32 13.2908V18.7092C32 19.1589 31.6865 19.5479 31.2471 19.6436L28.7876 20.1782C28.5737 20.833 28.3089 21.4717 27.9961 22.0869L29.3577 24.2048C29.6008 24.5833 29.5474 25.0801 29.2295 25.3979L25.398 29.2295C25.0801 29.5476 24.5833 29.6008 24.2048 29.3577L22.0869 27.9961C21.4717 28.3088 20.833 28.5737 20.1782 28.7876L19.6436 31.2471C19.5481 31.6865 19.159 32 18.7092 32H13.2908C12.8411 32 12.4519 31.6865 12.3565 31.2471L11.8218 28.7876C11.167 28.5737 10.5283 28.3088 9.9131 27.9961L7.79518 29.3577C7.41676 29.6008 6.91994 29.5474 6.60207 29.2295L2.77052 25.3979C2.45265 25.0801 2.39919 24.5833 2.64235 24.2048L4.00392 22.0869C3.69118 21.4717 3.42628 20.833 3.21242 20.1782L0.752945 19.6436C0.313492 19.5479 1.52588e-05 19.1589 1.52588e-05 18.7092V13.2908C1.52588e-05 12.8411 0.313492 12.4521 0.752945 12.3564L3.21242 11.8218C3.42628 11.167 3.69118 10.5283 4.00392 9.91309L2.64235 7.79517C2.39919 7.41675 2.45265 6.91992 2.77052 6.60205L6.60207 2.77051C6.91994 2.45264 7.41676 2.39917 7.79518 2.64233L9.9131 4.00391C10.5283 3.69116 11.167 3.42627 11.8218 3.2124L12.3565 0.75293C12.4519 0.313477 12.8411 0 13.2908 0H18.7092C19.159 0 19.5481 0.313477 19.6436 0.75293L20.1782 3.2124C20.833 3.42627 21.4717 3.69116 22.0869 4.00391L24.2048 2.64233C24.5833 2.39917 25.0801 2.45264 25.398 2.77051L29.2295 6.60205C29.5474 6.91992 29.6008 7.41675 29.3577 7.79517L27.9961 9.91309C28.3089 10.5283 28.5737 11.167 28.7876 11.8218ZM16 21.7371C19.1633 21.7371 21.7371 19.1633 21.7371 16C21.7371 12.8367 19.1633 10.2629 16 10.2629C12.8367 10.2629 10.263 12.8367 10.263 16C10.263 19.1633 12.8367 21.7371 16 21.7371Z" fill="white"/>
</svg>
