<svg width="17" height="21" viewBox="0 0 17 21" fill="none" xmlns="http://www.w3.org/2000/svg">
<path d="M6.38733 1.33228H9.72992V1.89471H10.937V1.25354C10.9372 0.631287 10.4312 0.125 9.80927 0.125H6.30798C5.68604 0.125 5.18005 0.631287 5.18005 1.25354V1.89471H6.38733V1.33228Z" fill="white"/>
<path fill-rule="evenodd" clip-rule="evenodd" d="M2.39242 6.67773H13.7248C14.0353 6.67773 14.2798 6.94263 14.2546 7.25223L13.3072 18.9672C13.2544 19.6213 12.7089 20.125 12.0535 20.125H4.06356C3.4082 20.125 2.8627 19.6213 2.8099 18.9673L1.86248 7.25223C1.83746 6.94263 2.0819 6.67773 2.39242 6.67773ZM5.09857 18.8767C5.11108 18.8767 5.12374 18.8762 5.13641 18.8755C5.46905 18.8549 5.72219 18.5686 5.70159 18.2358L5.10803 8.61835C5.08758 8.2854 4.79995 8.03287 4.46838 8.05301C4.13574 8.07346 3.88259 8.35986 3.90304 8.69266L4.49676 18.3101C4.51644 18.6302 4.7821 18.8767 5.09857 18.8767ZM8.66897 18.273C8.66897 18.6063 8.39874 18.8765 8.06533 18.8765C7.73193 18.8765 7.46169 18.6063 7.46169 18.273V8.65543C7.46169 8.32202 7.73193 8.05179 8.06533 8.05179C8.39858 8.05179 8.66897 8.32202 8.66897 8.65543V18.273ZM11.6473 18.3084L12.2142 8.69098C12.2337 8.35818 11.9798 8.07239 11.647 8.05286C11.3133 8.03317 11.0286 8.28708 11.0091 8.61987L10.4423 18.2375C10.4227 18.5703 10.6766 18.8559 11.0094 18.8756C11.0214 18.8762 11.0335 18.8765 11.0454 18.8765C11.3625 18.8765 11.6286 18.6292 11.6473 18.3084Z" fill="white"/>
<path d="M15.8122 4.815L15.4158 3.62665C15.3112 3.31339 15.018 3.10205 14.6876 3.10205H1.42939C1.09919 3.10205 0.805766 3.31339 0.701395 3.62665L0.304972 4.815C0.228526 5.04419 0.328013 5.27795 0.513712 5.39453C0.589396 5.44199 0.678965 5.47052 0.777384 5.47052H15.3398C15.4382 5.47052 15.5279 5.44199 15.6034 5.39438C15.7891 5.2778 15.8886 5.04404 15.8122 4.815Z" fill="white"/>
</svg>
