<svg width="28" height="28" viewBox="0 0 28 28" fill="none" xmlns="http://www.w3.org/2000/svg">
<circle cx="10.8206" cy="24.658" r="3.30571" fill="white"/>
<path d="M20.4679 21.3524C18.6422 21.3524 17.1622 22.8325 17.1622 24.6581C17.1622 26.4838 18.6422 27.9638 20.4679 27.9638C22.2935 27.9638 23.7736 26.4838 23.7736 24.6581C23.7736 22.8325 22.2935 21.3524 20.4679 21.3524Z" fill="white"/>
<path d="M26.1011 17.9791H8.86416L8.52684 16.0227H22.6942C23.111 16.0239 23.4859 15.7695 23.6387 15.3818L27.0118 6.88138C27.2168 6.36144 26.9614 5.77377 26.4414 5.56887C26.3223 5.5219 26.1954 5.49798 26.0674 5.49838H6.77279L5.96322 0.843395C5.88008 0.351187 5.4504 -0.00688313 4.95127 0.0001004H1.07212C0.513238 0.0001004 0.0601654 0.453173 0.0601654 1.01205C0.0601654 1.57093 0.513238 2.02401 1.07212 2.02401H4.10798L7.00891 19.1597C7.09205 19.6519 7.52174 20.01 8.02086 20.003H26.1011C26.66 20.003 27.113 19.55 27.113 18.9911C27.113 18.4322 26.66 17.9791 26.1011 17.9791Z" fill="white"/>
</svg>
